<svg width="355" height="160" viewBox="0 0 355 160" fill="none" xmlns="http://www.w3.org/2000/svg">
<path d="M127.904 145.14C127.073 145.14 126.359 145.014 125.762 144.762C125.164 144.51 124.712 144.179 124.404 143.768C124.096 143.357 123.932 142.914 123.914 142.438C123.914 142.354 123.942 142.284 123.998 142.228C124.054 142.172 124.124 142.144 124.208 142.144H125.454C125.566 142.144 125.65 142.167 125.706 142.214C125.771 142.251 125.832 142.317 125.888 142.41C125.981 142.727 126.196 142.993 126.532 143.208C126.868 143.423 127.325 143.53 127.904 143.53C128.566 143.53 129.066 143.423 129.402 143.208C129.738 142.984 129.906 142.676 129.906 142.284C129.906 142.023 129.817 141.808 129.64 141.64C129.472 141.472 129.215 141.327 128.87 141.206C128.534 141.085 128.03 140.935 127.358 140.758C126.256 140.497 125.449 140.151 124.936 139.722C124.432 139.283 124.18 138.663 124.18 137.86C124.18 137.319 124.324 136.838 124.614 136.418C124.912 135.998 125.337 135.667 125.888 135.424C126.448 135.181 127.096 135.06 127.834 135.06C128.599 135.06 129.262 135.195 129.822 135.466C130.382 135.737 130.806 136.077 131.096 136.488C131.394 136.889 131.553 137.291 131.572 137.692C131.572 137.776 131.544 137.846 131.488 137.902C131.432 137.958 131.362 137.986 131.278 137.986H129.976C129.78 137.986 129.644 137.897 129.57 137.72C129.514 137.421 129.327 137.174 129.01 136.978C128.692 136.773 128.3 136.67 127.834 136.67C127.311 136.67 126.9 136.768 126.602 136.964C126.303 137.16 126.154 137.445 126.154 137.818C126.154 138.079 126.228 138.294 126.378 138.462C126.527 138.63 126.76 138.779 127.078 138.91C127.404 139.041 127.871 139.185 128.478 139.344C129.299 139.531 129.952 139.741 130.438 139.974C130.932 140.207 131.296 140.501 131.53 140.856C131.763 141.211 131.88 141.663 131.88 142.214C131.88 142.811 131.712 143.334 131.376 143.782C131.049 144.221 130.582 144.557 129.976 144.79C129.378 145.023 128.688 145.14 127.904 145.14ZM136.452 145.14C135.416 145.14 134.59 144.841 133.974 144.244C133.368 143.637 133.046 142.788 133.008 141.696L132.994 141.346L133.008 140.996C133.055 139.932 133.382 139.097 133.988 138.49C134.604 137.883 135.426 137.58 136.452 137.58C137.554 137.58 138.403 137.916 139 138.588C139.607 139.26 139.91 140.156 139.91 141.276V141.57C139.91 141.663 139.878 141.743 139.812 141.808C139.747 141.873 139.663 141.906 139.56 141.906H134.912V142.018C134.931 142.531 135.071 142.965 135.332 143.32C135.603 143.665 135.972 143.838 136.438 143.838C136.989 143.838 137.432 143.623 137.768 143.194C137.852 143.091 137.918 143.026 137.964 142.998C138.02 142.97 138.1 142.956 138.202 142.956H139.406C139.49 142.956 139.56 142.984 139.616 143.04C139.682 143.087 139.714 143.147 139.714 143.222C139.714 143.446 139.579 143.712 139.308 144.02C139.047 144.319 138.669 144.58 138.174 144.804C137.68 145.028 137.106 145.14 136.452 145.14ZM138.006 140.73V140.688C138.006 140.137 137.866 139.694 137.586 139.358C137.316 139.022 136.938 138.854 136.452 138.854C135.967 138.854 135.589 139.022 135.318 139.358C135.048 139.694 134.912 140.137 134.912 140.688V140.73H138.006ZM144.532 145.14C143.496 145.14 142.67 144.841 142.054 144.244C141.448 143.637 141.126 142.788 141.088 141.696L141.074 141.346L141.088 140.996C141.135 139.932 141.462 139.097 142.068 138.49C142.684 137.883 143.506 137.58 144.532 137.58C145.634 137.58 146.483 137.916 147.08 138.588C147.687 139.26 147.99 140.156 147.99 141.276V141.57C147.99 141.663 147.958 141.743 147.892 141.808C147.827 141.873 147.743 141.906 147.64 141.906H142.992V142.018C143.011 142.531 143.151 142.965 143.412 143.32C143.683 143.665 144.052 143.838 144.518 143.838C145.069 143.838 145.512 143.623 145.848 143.194C145.932 143.091 145.998 143.026 146.044 142.998C146.1 142.97 146.18 142.956 146.282 142.956H147.486C147.57 142.956 147.64 142.984 147.696 143.04C147.762 143.087 147.794 143.147 147.794 143.222C147.794 143.446 147.659 143.712 147.388 144.02C147.127 144.319 146.749 144.58 146.254 144.804C145.76 145.028 145.186 145.14 144.532 145.14ZM146.086 140.73V140.688C146.086 140.137 145.946 139.694 145.666 139.358C145.396 139.022 145.018 138.854 144.532 138.854C144.047 138.854 143.669 139.022 143.398 139.358C143.128 139.694 142.992 140.137 142.992 140.688V140.73H146.086ZM149.826 147.66C149.733 147.66 149.654 147.627 149.588 147.562C149.523 147.506 149.49 147.427 149.49 147.324V138.056C149.49 137.953 149.523 137.874 149.588 137.818C149.654 137.753 149.733 137.72 149.826 137.72H150.932C151.035 137.72 151.114 137.753 151.17 137.818C151.236 137.874 151.268 137.953 151.268 138.056V138.616C151.791 137.925 152.538 137.58 153.508 137.58C154.451 137.58 155.174 137.879 155.678 138.476C156.182 139.064 156.453 139.862 156.49 140.87C156.5 140.982 156.504 141.145 156.504 141.36C156.504 141.584 156.5 141.752 156.49 141.864C156.453 142.844 156.182 143.637 155.678 144.244C155.174 144.841 154.451 145.14 153.508 145.14C152.566 145.14 151.847 144.809 151.352 144.146V147.324C151.352 147.427 151.32 147.506 151.254 147.562C151.198 147.627 151.119 147.66 151.016 147.66H149.826ZM152.99 143.642C153.998 143.642 154.535 143.021 154.6 141.78C154.61 141.687 154.614 141.547 154.614 141.36C154.614 141.173 154.61 141.033 154.6 140.94C154.535 139.699 153.998 139.078 152.99 139.078C152.449 139.078 152.048 139.251 151.786 139.596C151.525 139.941 151.38 140.366 151.352 140.87L151.338 141.402L151.352 141.948C151.371 142.415 151.516 142.816 151.786 143.152C152.066 143.479 152.468 143.642 152.99 143.642ZM161.779 145C161.686 145 161.607 144.967 161.541 144.902C161.476 144.837 161.443 144.757 161.443 144.664V135.536C161.443 135.433 161.476 135.354 161.541 135.298C161.607 135.233 161.686 135.2 161.779 135.2H163.095C163.198 135.2 163.277 135.233 163.333 135.298C163.399 135.354 163.431 135.433 163.431 135.536V144.664C163.431 144.757 163.399 144.837 163.333 144.902C163.277 144.967 163.198 145 163.095 145H161.779ZM165.795 145C165.701 145 165.622 144.967 165.557 144.902C165.491 144.837 165.459 144.757 165.459 144.664V138.056C165.459 137.963 165.491 137.883 165.557 137.818C165.622 137.753 165.701 137.72 165.795 137.72H166.887C166.98 137.72 167.059 137.753 167.125 137.818C167.19 137.883 167.223 137.963 167.223 138.056V138.532C167.708 137.897 168.385 137.58 169.253 137.58C170.289 137.58 171.012 137.995 171.423 138.826C171.647 138.453 171.964 138.154 172.375 137.93C172.785 137.697 173.229 137.58 173.705 137.58C174.47 137.58 175.095 137.841 175.581 138.364C176.066 138.887 176.309 139.647 176.309 140.646V144.664C176.309 144.757 176.276 144.837 176.211 144.902C176.155 144.967 176.075 145 175.973 145H174.825C174.731 145 174.652 144.967 174.587 144.902C174.521 144.837 174.489 144.757 174.489 144.664V140.758C174.489 140.17 174.363 139.745 174.111 139.484C173.868 139.213 173.541 139.078 173.131 139.078C172.767 139.078 172.454 139.213 172.193 139.484C171.941 139.755 171.815 140.179 171.815 140.758V144.664C171.815 144.757 171.782 144.837 171.717 144.902C171.651 144.967 171.572 145 171.479 145H170.331C170.237 145 170.158 144.967 170.093 144.902C170.027 144.837 169.995 144.757 169.995 144.664V140.758C169.995 140.17 169.864 139.745 169.603 139.484C169.351 139.213 169.029 139.078 168.637 139.078C168.263 139.078 167.946 139.213 167.685 139.484C167.433 139.755 167.307 140.179 167.307 140.758V144.664C167.307 144.757 167.274 144.837 167.209 144.902C167.143 144.967 167.064 145 166.971 145H165.795ZM178.442 147.66C178.348 147.66 178.269 147.627 178.204 147.562C178.138 147.506 178.106 147.427 178.106 147.324V138.056C178.106 137.953 178.138 137.874 178.204 137.818C178.269 137.753 178.348 137.72 178.442 137.72H179.548C179.65 137.72 179.73 137.753 179.786 137.818C179.851 137.874 179.884 137.953 179.884 138.056V138.616C180.406 137.925 181.153 137.58 182.124 137.58C183.066 137.58 183.79 137.879 184.294 138.476C184.798 139.064 185.068 139.862 185.106 140.87C185.115 140.982 185.12 141.145 185.12 141.36C185.12 141.584 185.115 141.752 185.106 141.864C185.068 142.844 184.798 143.637 184.294 144.244C183.79 144.841 183.066 145.14 182.124 145.14C181.181 145.14 180.462 144.809 179.968 144.146V147.324C179.968 147.427 179.935 147.506 179.87 147.562C179.814 147.627 179.734 147.66 179.632 147.66H178.442ZM181.606 143.642C182.614 143.642 183.15 143.021 183.216 141.78C183.225 141.687 183.23 141.547 183.23 141.36C183.23 141.173 183.225 141.033 183.216 140.94C183.15 139.699 182.614 139.078 181.606 139.078C181.064 139.078 180.663 139.251 180.402 139.596C180.14 139.941 179.996 140.366 179.968 140.87L179.954 141.402L179.968 141.948C179.986 142.415 180.131 142.816 180.402 143.152C180.682 143.479 181.083 143.642 181.606 143.642ZM187.027 145C186.934 145 186.855 144.967 186.789 144.902C186.724 144.837 186.691 144.757 186.691 144.664V138.07C186.691 137.977 186.724 137.897 186.789 137.832C186.855 137.757 186.934 137.72 187.027 137.72H188.161C188.264 137.72 188.348 137.753 188.413 137.818C188.479 137.883 188.511 137.967 188.511 138.07V138.644C188.735 138.345 189.015 138.117 189.351 137.958C189.697 137.799 190.089 137.72 190.527 137.72H191.101C191.204 137.72 191.283 137.753 191.339 137.818C191.405 137.874 191.437 137.953 191.437 138.056V139.064C191.437 139.157 191.405 139.237 191.339 139.302C191.283 139.367 191.204 139.4 191.101 139.4H190.009C189.571 139.4 189.225 139.526 188.973 139.778C188.721 140.03 188.595 140.375 188.595 140.814V144.664C188.595 144.757 188.563 144.837 188.497 144.902C188.432 144.967 188.348 145 188.245 145H187.027ZM195.653 145.14C194.561 145.14 193.717 144.86 193.119 144.3C192.522 143.731 192.2 142.956 192.153 141.976L192.139 141.36L192.153 140.744C192.2 139.773 192.527 139.003 193.133 138.434C193.74 137.865 194.58 137.58 195.653 137.58C196.727 137.58 197.567 137.865 198.173 138.434C198.78 139.003 199.107 139.773 199.153 140.744C199.163 140.856 199.167 141.061 199.167 141.36C199.167 141.659 199.163 141.864 199.153 141.976C199.107 142.956 198.785 143.731 198.187 144.3C197.59 144.86 196.745 145.14 195.653 145.14ZM195.653 143.754C196.148 143.754 196.531 143.6 196.801 143.292C197.072 142.975 197.221 142.513 197.249 141.906C197.259 141.813 197.263 141.631 197.263 141.36C197.263 141.089 197.259 140.907 197.249 140.814C197.221 140.207 197.072 139.75 196.801 139.442C196.531 139.125 196.148 138.966 195.653 138.966C195.159 138.966 194.776 139.125 194.505 139.442C194.235 139.75 194.085 140.207 194.057 140.814L194.043 141.36L194.057 141.906C194.085 142.513 194.235 142.975 194.505 143.292C194.776 143.6 195.159 143.754 195.653 143.754ZM203.035 145C202.895 145 202.787 144.972 202.713 144.916C202.638 144.851 202.577 144.762 202.531 144.65L199.913 138.154L199.885 138.028C199.885 137.944 199.913 137.874 199.969 137.818C200.034 137.753 200.109 137.72 200.193 137.72H201.327C201.504 137.72 201.625 137.809 201.691 137.986L203.553 142.9L205.415 137.986C205.443 137.921 205.485 137.86 205.541 137.804C205.606 137.748 205.685 137.72 205.779 137.72H206.927C207.001 137.72 207.067 137.753 207.123 137.818C207.188 137.874 207.221 137.944 207.221 138.028C207.221 138.084 207.216 138.126 207.207 138.154L204.575 144.65C204.528 144.762 204.467 144.851 204.393 144.916C204.318 144.972 204.211 145 204.071 145H203.035ZM211.374 145.14C210.338 145.14 209.512 144.841 208.896 144.244C208.289 143.637 207.967 142.788 207.93 141.696L207.916 141.346L207.93 140.996C207.977 139.932 208.303 139.097 208.91 138.49C209.526 137.883 210.347 137.58 211.374 137.58C212.475 137.58 213.325 137.916 213.922 138.588C214.529 139.26 214.832 140.156 214.832 141.276V141.57C214.832 141.663 214.799 141.743 214.734 141.808C214.669 141.873 214.585 141.906 214.482 141.906H209.834V142.018C209.853 142.531 209.993 142.965 210.254 143.32C210.525 143.665 210.893 143.838 211.36 143.838C211.911 143.838 212.354 143.623 212.69 143.194C212.774 143.091 212.839 143.026 212.886 142.998C212.942 142.97 213.021 142.956 213.124 142.956H214.328C214.412 142.956 214.482 142.984 214.538 143.04C214.603 143.087 214.636 143.147 214.636 143.222C214.636 143.446 214.501 143.712 214.23 144.02C213.969 144.319 213.591 144.58 213.096 144.804C212.601 145.028 212.027 145.14 211.374 145.14ZM212.928 140.73V140.688C212.928 140.137 212.788 139.694 212.508 139.358C212.237 139.022 211.859 138.854 211.374 138.854C210.889 138.854 210.511 139.022 210.24 139.358C209.969 139.694 209.834 140.137 209.834 140.688V140.73H212.928ZM216.654 145C216.561 145 216.481 144.967 216.416 144.902C216.351 144.837 216.318 144.757 216.318 144.664V138.056C216.318 137.963 216.351 137.883 216.416 137.818C216.481 137.753 216.561 137.72 216.654 137.72H217.746C217.839 137.72 217.919 137.753 217.984 137.818C218.049 137.883 218.082 137.963 218.082 138.056V138.532C218.567 137.897 219.244 137.58 220.112 137.58C221.148 137.58 221.871 137.995 222.282 138.826C222.506 138.453 222.823 138.154 223.234 137.93C223.645 137.697 224.088 137.58 224.564 137.58C225.329 137.58 225.955 137.841 226.44 138.364C226.925 138.887 227.168 139.647 227.168 140.646V144.664C227.168 144.757 227.135 144.837 227.07 144.902C227.014 144.967 226.935 145 226.832 145H225.684C225.591 145 225.511 144.967 225.446 144.902C225.381 144.837 225.348 144.757 225.348 144.664V140.758C225.348 140.17 225.222 139.745 224.97 139.484C224.727 139.213 224.401 139.078 223.99 139.078C223.626 139.078 223.313 139.213 223.052 139.484C222.8 139.755 222.674 140.179 222.674 140.758V144.664C222.674 144.757 222.641 144.837 222.576 144.902C222.511 144.967 222.431 145 222.338 145H221.19C221.097 145 221.017 144.967 220.952 144.902C220.887 144.837 220.854 144.757 220.854 144.664V140.758C220.854 140.17 220.723 139.745 220.462 139.484C220.21 139.213 219.888 139.078 219.496 139.078C219.123 139.078 218.805 139.213 218.544 139.484C218.292 139.755 218.166 140.179 218.166 140.758V144.664C218.166 144.757 218.133 144.837 218.068 144.902C218.003 144.967 217.923 145 217.83 145H216.654ZM232.087 145.14C231.051 145.14 230.225 144.841 229.609 144.244C229.002 143.637 228.68 142.788 228.643 141.696L228.629 141.346L228.643 140.996C228.69 139.932 229.016 139.097 229.623 138.49C230.239 137.883 231.06 137.58 232.087 137.58C233.188 137.58 234.038 137.916 234.635 138.588C235.242 139.26 235.545 140.156 235.545 141.276V141.57C235.545 141.663 235.512 141.743 235.447 141.808C235.382 141.873 235.298 141.906 235.195 141.906H230.547V142.018C230.566 142.531 230.706 142.965 230.967 143.32C231.238 143.665 231.606 143.838 232.073 143.838C232.624 143.838 233.067 143.623 233.403 143.194C233.487 143.091 233.552 143.026 233.599 142.998C233.655 142.97 233.734 142.956 233.837 142.956H235.041C235.125 142.956 235.195 142.984 235.251 143.04C235.316 143.087 235.349 143.147 235.349 143.222C235.349 143.446 235.214 143.712 234.943 144.02C234.682 144.319 234.304 144.58 233.809 144.804C233.314 145.028 232.74 145.14 232.087 145.14ZM233.641 140.73V140.688C233.641 140.137 233.501 139.694 233.221 139.358C232.95 139.022 232.572 138.854 232.087 138.854C231.602 138.854 231.224 139.022 230.953 139.358C230.682 139.694 230.547 140.137 230.547 140.688V140.73H233.641ZM237.367 145C237.274 145 237.194 144.967 237.129 144.902C237.064 144.837 237.031 144.757 237.031 144.664V138.056C237.031 137.963 237.064 137.883 237.129 137.818C237.194 137.753 237.274 137.72 237.367 137.72H238.515C238.608 137.72 238.688 137.753 238.753 137.818C238.818 137.883 238.851 137.963 238.851 138.056V138.63C239.402 137.93 240.181 137.58 241.189 137.58C242.048 137.58 242.729 137.865 243.233 138.434C243.737 138.994 243.989 139.759 243.989 140.73V144.664C243.989 144.757 243.956 144.837 243.891 144.902C243.835 144.967 243.756 145 243.653 145H242.421C242.328 145 242.248 144.967 242.183 144.902C242.118 144.837 242.085 144.757 242.085 144.664V140.814C242.085 140.263 241.95 139.839 241.679 139.54C241.418 139.232 241.035 139.078 240.531 139.078C240.036 139.078 239.644 139.232 239.355 139.54C239.075 139.848 238.935 140.273 238.935 140.814V144.664C238.935 144.757 238.902 144.837 238.837 144.902C238.781 144.967 238.702 145 238.599 145H237.367ZM248.975 145C248.126 145 247.487 144.781 247.057 144.342C246.637 143.894 246.427 143.241 246.427 142.382V139.204H245.321C245.228 139.204 245.149 139.171 245.083 139.106C245.018 139.031 244.985 138.947 244.985 138.854V138.056C244.985 137.963 245.018 137.883 245.083 137.818C245.149 137.753 245.228 137.72 245.321 137.72H246.427V135.396C246.427 135.293 246.46 135.214 246.525 135.158C246.591 135.093 246.67 135.06 246.763 135.06H247.897C248 135.06 248.079 135.093 248.135 135.158C248.201 135.214 248.233 135.293 248.233 135.396V137.72H249.983C250.086 137.72 250.165 137.753 250.221 137.818C250.287 137.874 250.319 137.953 250.319 138.056V138.854C250.319 138.957 250.287 139.041 250.221 139.106C250.156 139.171 250.077 139.204 249.983 139.204H248.233V142.242C248.233 142.643 248.303 142.947 248.443 143.152C248.583 143.357 248.817 143.46 249.143 143.46H250.109C250.203 143.46 250.282 143.493 250.347 143.558C250.413 143.623 250.445 143.703 250.445 143.796V144.664C250.445 144.757 250.413 144.837 250.347 144.902C250.291 144.967 250.212 145 250.109 145H248.975Z" fill="#303030"/>
<path d="M185.5 -0.109375C153.182 -0.109375 126.891 26.1835 126.891 58.5C126.891 64.1397 127.719 69.6982 129.294 75.0505C127.749 78.6805 126.891 82.6716 126.891 86.8594C126.891 103.538 140.462 117.109 157.141 117.109C161.328 117.109 165.318 116.253 168.948 114.706C174.306 116.281 179.862 117.109 185.5 117.109C217.818 117.109 244.109 90.8165 244.109 58.5C244.109 26.1835 217.818 -0.109375 185.5 -0.109375ZM130.672 86.8594C130.672 72.2637 142.545 60.3906 157.141 60.3906C171.736 60.3906 183.609 72.2637 183.609 86.8594C183.609 101.455 171.736 113.328 157.141 113.328C142.545 113.328 130.672 101.455 130.672 86.8594ZM140.151 60.3906H142.53C141.73 60.833 140.949 61.3057 140.195 61.8162C140.176 61.3303 140.163 60.85 140.151 60.3906ZM183.609 103.799C183.148 103.78 182.687 103.777 182.227 103.745C182.723 103.011 183.178 102.249 183.609 101.472V103.799ZM185.5 113.328C181.554 113.328 177.652 112.888 173.837 112.061C175.896 110.693 177.76 109.063 179.425 107.246C181.435 107.492 183.466 107.656 185.5 107.656C203.1 107.656 219.463 98.154 228.207 82.8569L224.925 80.9814C224.409 81.8832 223.863 82.7624 223.292 83.6207L215.673 78.085L213.449 81.144L221.049 86.6646C218.862 89.4174 216.381 91.8884 213.659 94.0419L208.144 86.4491L205.087 88.6725L210.606 96.269C207.7 98.1975 204.573 99.7761 201.298 100.997L198.4 92.0794L194.804 93.2478L197.708 102.183C194.373 103.119 190.915 103.663 187.391 103.811V94.4219H186.394C187.022 92 187.391 89.4741 187.391 86.8594C187.391 70.1803 173.82 56.6094 157.141 56.6094C154.526 56.6094 152 56.978 149.578 57.6057V56.6094H140.172C140.32 53.0493 140.881 49.597 141.806 46.2922L150.748 49.1981L151.919 45.6022L142.969 42.6925C144.197 39.3952 145.801 36.2795 147.725 33.3925L155.326 38.915L157.549 35.856L149.958 30.341C152.129 27.6072 154.607 25.1286 157.341 22.9581L162.856 30.5509L165.913 28.3275L160.393 20.7272C163.278 18.8025 166.393 17.1993 169.693 15.9704L172.602 24.9206L176.198 23.7522L173.292 14.8077C176.595 13.8831 180.049 13.3197 183.609 13.1723V22.5781H187.391V13.1723C190.951 13.3197 194.405 13.8812 197.708 14.8058L194.8 23.7503L198.396 24.9187L201.306 15.9685C204.603 17.1974 207.719 18.8007 210.606 20.7253L205.085 28.3256L208.142 30.549L213.657 22.9562C216.391 25.1267 218.87 27.6034 221.04 30.3391L213.449 35.8541L215.673 38.9131L223.273 33.3906C225.197 36.2757 226.801 39.3915 228.03 42.6906L219.079 45.6003L220.25 49.1962L229.192 46.2903C230.117 49.5952 230.68 53.0474 230.826 56.6075H221.422V60.3887H230.826C230.682 63.9129 230.147 67.3633 229.211 70.7134L220.25 67.8L219.079 71.396L228.033 74.3056C227.655 75.319 227.254 76.3229 226.803 77.3136L230.24 78.8847C233.17 72.4717 234.656 65.6125 234.656 58.5C234.656 31.396 212.606 9.34375 185.5 9.34375C158.394 9.34375 136.344 31.396 136.344 58.5C136.344 60.0825 136.417 62.7463 136.557 64.7542C134.82 66.3745 133.258 68.1781 131.939 70.1633C131.112 66.3499 130.672 62.4476 130.672 58.5C130.672 28.267 155.269 3.67188 185.5 3.67188C215.731 3.67188 240.328 28.267 240.328 58.5C240.328 88.733 215.731 113.328 185.5 113.328Z" fill="#1A87C7"/>
<path d="M189.317 52.0095C188.192 51.344 186.899 50.9375 185.5 50.9375C181.329 50.9375 177.938 54.3293 177.938 58.5C177.938 62.6707 181.329 66.0625 185.5 66.0625C189.671 66.0625 193.063 62.6707 193.063 58.5C193.063 57.1009 192.656 55.8078 191.991 54.6828L209.524 37.1492L206.851 34.4758L189.317 52.0095ZM185.5 62.2813C183.415 62.2813 181.719 60.5854 181.719 58.5C181.719 56.4146 183.415 54.7188 185.5 54.7188C187.585 54.7188 189.281 56.4146 189.281 58.5C189.281 60.5854 187.585 62.2813 185.5 62.2813Z" fill="#1A87C7"/>
<path d="M157.141 64.1719C144.63 64.1719 134.453 74.3491 134.453 86.8594C134.453 99.3696 144.63 109.547 157.141 109.547C169.651 109.547 179.828 99.3696 179.828 86.8594C179.828 74.3491 169.651 64.1719 157.141 64.1719ZM169.71 100.943L166.448 96.4543L163.391 98.6777L166.656 103.17C164.372 104.508 161.793 105.393 159.033 105.669V100.094H155.252V105.669C152.49 105.393 149.913 104.506 147.629 103.17L150.894 98.6777L147.837 96.4543L144.576 100.943C142.573 99.1541 140.949 96.9553 139.849 94.4654L145.141 92.7449L143.974 89.1489L138.677 90.8713C138.391 89.5781 138.234 88.2376 138.234 86.8594C138.234 85.4811 138.391 84.1407 138.673 82.8456L143.971 84.5679L145.137 80.972L139.845 79.2515C140.944 76.7634 142.568 74.5646 144.572 72.7742L147.833 77.2626L150.89 75.0392L147.625 70.5471C149.909 69.2085 152.488 68.3237 155.248 68.0477V73.625H159.029V68.0495C161.792 68.3256 164.368 69.2123 166.652 70.549L163.387 75.0411L166.444 77.2645L169.706 72.7761C171.708 74.5646 173.334 76.7634 174.432 79.2534L169.14 80.9739L170.307 84.5698L175.604 82.8475C175.89 84.1407 176.047 85.4811 176.047 86.8594C176.047 88.2376 175.89 89.5781 175.608 90.8732L170.311 89.1508L169.144 92.7468L174.436 94.4672C173.336 96.9553 171.712 99.1541 169.71 100.943Z" fill="#1A87C7"/>
<path d="M157.141 83.0781C156.989 83.0781 156.848 83.1046 156.702 83.1216L152.981 78.1625L149.956 80.4312L153.664 85.3752C153.469 85.8308 153.359 86.3319 153.359 86.8593C153.359 88.9447 155.055 90.6406 157.141 90.6406C159.226 90.6406 160.922 88.9447 160.922 86.8593C160.922 84.774 159.226 83.0781 157.141 83.0781Z" fill="#1A87C7"/>
<path d="M325.124 115.953C328.442 115.953 331.141 113.254 331.141 109.937V76.0318C331.141 72.7145 328.442 70.0156 325.124 70.0156H308.172C295.506 70.0156 285.203 80.3188 285.203 92.9844C285.203 105.65 295.506 115.953 308.172 115.953H325.124ZM288.484 92.9844C288.484 82.1284 297.316 73.2969 308.172 73.2969H325.124C326.632 73.2969 327.859 74.5241 327.859 76.0318V109.939C327.859 111.445 326.632 112.672 325.124 112.672H308.172C297.316 112.672 288.484 103.84 288.484 92.9844Z" fill="#1A87C7"/>
<path d="M347.068 30.6406C343.693 30.6406 340.704 32.6652 339.45 35.7971L328.378 63.4794C328.206 63.4695 328.035 63.4531 327.859 63.4531H308.172C291.889 63.4531 278.641 76.7012 278.641 92.9844C278.641 108.142 290.123 120.655 304.845 122.315L300.827 132.359H380.359V30.6406H347.068ZM377.078 94.625H365.594V33.9219H377.078V94.625ZM359.031 33.9219H362.313V94.625C362.313 96.4346 363.784 97.9062 365.594 97.9062H377.078V101.188H363.953C361.24 101.188 359.031 98.9792 359.031 96.2656V33.9219ZM281.922 92.9844C281.922 78.5108 293.698 66.7344 308.172 66.7344H327.859C331.479 66.7344 334.422 69.6777 334.422 73.2969V88.0625V97.9062V112.672C334.422 116.291 331.479 119.234 327.859 119.234H308.172C293.698 119.234 281.922 107.458 281.922 92.9844ZM337.703 88.0625C337.703 87.1585 338.44 86.4219 339.344 86.4219C340.248 86.4219 340.984 87.1585 340.984 88.0625V97.9062C340.984 98.8102 340.248 99.5469 339.344 99.5469C338.44 99.5469 337.703 98.8102 337.703 97.9062V88.0625ZM305.673 129.078L308.298 122.516H327.859C333.288 122.516 337.703 118.101 337.703 112.672V102.526C338.218 102.71 338.766 102.828 339.344 102.828C342.057 102.828 344.266 100.62 344.266 97.9062V88.0625C344.266 85.3489 342.057 83.1406 339.344 83.1406C338.766 83.1406 338.218 83.2587 337.703 83.4425V73.2969C337.703 69.2019 335.188 65.686 331.623 64.2045L342.499 37.0161C343.25 35.1359 345.043 33.9219 347.068 33.9219H355.75V96.2656C355.75 100.789 359.43 104.469 363.953 104.469H377.078V107.75H373.797V111.031H377.078V129.078H305.673Z" fill="#1A87C7"/>
<path d="M321.777 78.6987L301.296 99.1801L303.616 101.5L324.098 81.0189L321.777 78.6987Z" fill="#1A87C7"/>
<path d="M299.285 101.191L297.168 103.308L299.488 105.629L301.605 103.511L299.285 101.191Z" fill="#1A87C7"/>
<path d="M11.6563 89.7031C6.22744 89.7031 1.81252 94.118 1.81252 99.5469V102.828H-9.67186V94.625C-9.67186 91.3946 -14.9744 90.2495 -19.5156 90.2495C-24.0569 90.2495 -29.3594 91.3946 -29.3594 94.625V111.031C-29.3594 116.46 -24.9444 120.875 -19.5156 120.875H1.81252V122.516C1.81252 127.944 6.22744 132.359 11.6563 132.359H72.3594V89.7031H11.6563ZM-19.5156 93.5307C-16.382 93.5307 -14.218 94.1394 -13.3058 94.625C-14.218 95.1106 -16.382 95.7193 -19.5156 95.7193C-22.6492 95.7193 -24.8132 95.1106 -25.7254 94.625C-24.8132 94.1394 -22.6492 93.5307 -19.5156 93.5307ZM-19.5156 117.594C-23.1348 117.594 -26.0781 114.65 -26.0781 111.031V98.0441C-24.193 98.7184 -21.7616 99.0005 -19.5156 99.0005C-17.2696 99.0005 -14.8382 98.7184 -12.9531 98.0441V102.828C-12.9531 104.638 -11.4815 106.109 -9.67186 106.109H1.81252V117.594H-19.5156ZM69.0781 129.078H14.9375V125.797H11.6563V129.078C8.03704 129.078 5.09377 126.135 5.09377 122.516V99.5469C5.09377 95.9277 8.03704 92.9844 11.6563 92.9844V122.516H14.9375V92.9844H69.0781V129.078Z" fill="#1A87C7"/>
<path d="M-12.497 79.8315L-9.38639 78.793C-9.40608 78.7339 -11.3141 72.7243 -5.14209 66.5506C0.762518 60.6476 4.44572 62.1669 4.56549 62.2177L6.03385 59.2826C5.80252 59.1678 0.240801 56.5264 -7.46193 64.2308C-15.0498 71.8236 -12.6053 79.5083 -12.497 79.8315Z" fill="#1A87C7"/>
<path d="M23.8609 53.7898C30.4217 47.229 27.7639 41.6886 27.6491 41.4556L24.7025 42.8994C24.7714 43.052 26.3481 46.663 21.541 51.47C16.4945 56.5198 11.6152 55.6963 11.4085 55.6602L10.7769 58.8807C10.8556 58.8971 11.4397 59.0054 12.3831 59.0054C14.7406 59.0054 19.3311 58.3229 23.8609 53.7898Z" fill="#1A87C7"/>
<path d="M-4.57773 79.126L-1.64265 80.5944C-1.61312 80.537 1.28751 74.9375 10.0156 74.9375C18.3681 74.9375 19.8938 78.6174 19.9447 78.7372L23.0553 77.6987C22.9733 77.4526 20.9176 71.6562 10.0156 71.6562C-0.718978 71.6562 -4.42515 78.8209 -4.57773 79.126Z" fill="#1A87C7"/>
<path d="M39.5469 86.4219C48.8246 86.4219 50.8639 80.6256 50.9459 80.3778L47.8353 79.3393C47.8222 79.3787 46.3768 83.1407 39.5469 83.1407C32.4036 83.1407 29.5374 79.1096 29.4193 78.9374L26.6975 80.7683C26.8517 80.9996 30.5677 86.4219 39.5469 86.4219Z" fill="#1A87C7"/>
<path d="M21.5 122.516H18.2188V125.797H21.5V122.516Z" fill="#1A87C7"/>
<path d="M65.7969 122.516H24.7813V125.797H65.7969V122.516Z" fill="#1A87C7"/>
<path d="M0.307693 0H354.683V160H0.307693V0Z" fill="url(#paint0_linear_0_220)"/>
<defs>
<linearGradient id="paint0_linear_0_220" x1="354.683" y1="80" x2="0.30769" y2="80" gradientUnits="userSpaceOnUse">
<stop stop-color="white"/>
<stop offset="0.5" stop-color="white" stop-opacity="0"/>
<stop offset="0.973958" stop-color="white"/>
</linearGradient>
</defs>
</svg>
